<?xml version="1.0" encoding="UTF-8" standalone="no"?>
<svg width="11px" height="12px" viewBox="0 0 11 12" version="1.1" xmlns="http://www.w3.org/2000/svg" xmlns:xlink="http://www.w3.org/1999/xlink">
    <!-- Generator: sketchtool 39.1 (31720) - http://www.bohemiancoding.com/sketch -->
    <title>0186B1FF-2B0A-44B0-9F8B-5C2268BE559C</title>
    <desc>Created with sketchtool.</desc>
    <defs></defs>
    <g id="homepage-v2" stroke="none" stroke-width="1" fill="none" fill-rule="evenodd" stroke-linecap="round">
        <g id="shared-rooms-detail-page-chat" transform="translate(-1171.000000, -740.000000)" stroke="#BDC8D1">
            <g id="chat" transform="translate(932.000000, 385.000000)">
                <g id="Reply" transform="translate(1.000000, 341.000000)">
                    <g id="Attach-file" transform="translate(236.472973, 13.000000)">
                        <path d="M11.5473856,7.24661511 C11.5473856,7.24661511 10.275374,8.67955454 8.82976398,9.94120447 C7.80152176,10.8385984 7.2101863,11.3368907 5.77977873,11.6549914 C5.06892535,11.8130743 4.07248154,11.3517132 3.45958405,10.6079015 C2.83918473,9.85498564 2.60775887,8.81524477 2.79439571,8.26536288 C3.16541259,7.17224824 4.24721978,6.28046494 5.69415399,4.83062528 C7.22346493,3.29824347 8.16986616,2.00134869 9.5826246,1.87561751 C10.995383,1.74988633 11.9706797,3.03133724 11.7777503,4.15590417 C11.5848209,5.28047111 10.3595258,6.10732525 8.95190544,7.42740768 C7.50354151,8.78569991 6.43009077,9.95544885 5.60339646,10.0598589 C4.77670214,10.164269 4.33012233,9.19670492 4.45191496,8.62560182 C4.57370758,8.05449872 8.55426603,4.34869567 8.55426603,4.34869567" id="Icon"></path>
                    </g>
                </g>
            </g>
        </g>
    </g>
</svg>